<svg width="59" height="31" viewBox="0 0 59 31" fill="none" xmlns="http://www.w3.org/2000/svg">
<path d="M35.1943 12.3075C33.9972 12.4738 32.401 11.9085 32.1017 10.1793C31.8689 8.91562 32.7335 7.58546 34.0969 7.31943C38.5197 6.45482 41.18 4.85863 41.18 2.53085V2.19831C41.18 1.2672 42.4769 0.236328 43.8403 0.236328C45.1372 0.236328 46.7667 1.03442 46.7667 2.19831V2.73038C46.7667 7.9845 40.3487 11.5759 35.1943 12.3075ZM50.4246 5.25768L55.4792 7.51895C56.5766 8.01776 57.0089 9.71371 56.2441 11.0439C55.4792 12.4073 53.883 12.5403 52.8189 12.0747L47.9971 9.91324C47.0327 9.48094 46.1016 7.88474 46.9995 6.32181C47.8641 4.85863 49.3605 4.79212 50.4246 5.25768ZM32.5672 18.0272C31.3036 17.8277 30.0399 17.0628 30.2062 15.2006C30.3392 13.5712 32.0352 13.0059 33.1991 13.1056C35.2276 13.3051 38.2537 13.4382 41.5126 13.5047V11.9085C41.5126 10.8111 42.6764 9.78022 44.1729 9.78022C45.6693 9.78022 47.0992 10.6448 47.0992 11.9085V13.5047C50.3581 13.4714 53.4175 13.3384 55.4127 13.1056C56.6431 13.0059 58.3391 13.4382 58.4056 15.3004C58.4721 17.0296 57.2084 17.8277 56.0445 18.0272C52.0873 18.526 37.1563 18.659 32.5672 18.0272ZM56.4768 25.0438C56.4768 29.8989 50.4579 30.7635 44.3059 30.7635C38.1539 30.7635 32.1349 29.8989 32.1349 25.0438C32.1349 20.222 38.1539 19.3241 44.3059 19.3241C50.4579 19.3241 56.4768 20.222 56.4768 25.0438ZM50.8902 25.0771C50.8902 24.1792 48.8284 24.0462 44.2726 24.0462C39.7501 24.0462 37.7216 24.2457 37.7216 25.0771C37.7216 25.8419 39.7501 26.0747 44.2726 26.0747C48.8284 26.0747 50.8902 25.8751 50.8902 25.0771Z" fill="url(#paint0_linear_661_1823)"/>
<path d="M56.4749 25.0438C56.4749 20.2974 50.6426 19.3532 44.5922 19.3248L44.3041 19.3242C38.1521 19.3242 32.1331 20.222 32.1331 25.0438L32.1342 25.157C32.2257 29.8375 38.0134 30.7358 44.0158 30.7629L44.3041 30.7636C50.456 30.7636 56.4749 29.8989 56.4749 25.0438ZM50.6519 25.0772C50.6519 24.97 50.6018 24.8603 50.3852 24.7466C50.1587 24.6278 49.7924 24.5312 49.2565 24.4593C48.1901 24.3163 46.552 24.2827 44.2707 24.2827C42.0079 24.2827 40.3862 24.3328 39.3328 24.4839C38.8035 24.5598 38.4409 24.6584 38.2164 24.7751C37.9978 24.8888 37.9561 24.9919 37.9561 25.0772C37.9561 25.1371 37.9866 25.2319 38.2124 25.3439C38.4387 25.4561 38.8033 25.5528 39.3328 25.6288C40.3867 25.7799 42.0091 25.8383 44.2707 25.8383V26.0747C39.7835 26.0747 37.7515 25.8456 37.7201 25.0949L37.7197 25.0772C37.7197 24.2458 39.7482 24.0463 44.2707 24.0463L44.6906 24.0467C48.9534 24.0553 50.8883 24.2074 50.8883 25.0772L50.8879 25.0957C50.856 25.8783 48.791 26.0747 44.2707 26.0747V25.8383C46.5499 25.8383 48.189 25.7882 49.2557 25.6411C49.7917 25.5671 50.1608 25.4713 50.3901 25.3578C50.6167 25.2456 50.6519 25.1474 50.6519 25.0772ZM47.0973 11.9086C47.0973 10.6647 45.7118 9.80742 44.2411 9.78093L44.171 9.78032C42.6746 9.78032 41.5107 10.8112 41.5107 11.9086V13.5047C38.2518 13.4382 35.2257 13.3053 33.1972 13.1057C32.0333 13.006 30.3373 13.5713 30.2043 15.2007C30.0381 17.0629 31.3017 17.8277 32.5653 18.0272C37.1185 18.6541 51.8529 18.5282 55.948 18.0389L56.0427 18.0272C57.2066 17.8277 58.4702 17.0297 58.4037 15.3005C58.3372 13.4382 56.6412 13.006 55.4108 13.1057C53.4156 13.3385 50.3562 13.4715 47.0973 13.5047V11.9086ZM46.7648 2.19842C46.7648 1.05273 45.1859 0.261472 43.8995 0.237018L43.8385 0.236403C42.4751 0.236403 41.1781 1.26731 41.1781 2.19842V2.53094L41.1776 2.58535C41.1365 4.8836 38.4833 6.46163 34.095 7.31948C32.7316 7.58552 31.8671 8.91568 32.0998 10.1793C32.3991 11.9085 33.9952 12.4738 35.1924 12.3076C40.3065 11.5817 46.6646 8.04053 46.7637 2.8533L46.7648 2.73048V2.19842ZM48.5824 4.83617C49.2341 4.68646 49.9039 4.78502 50.4637 5.01817L50.5175 5.04118L50.5193 5.04195L55.5739 7.30324L55.5745 7.30355L55.5752 7.30378C56.207 7.59099 56.6268 8.21159 56.7885 8.91689C56.9507 9.62413 56.8607 10.441 56.4483 11.1596C55.6052 12.6626 53.8585 12.7885 52.7223 12.2914L52.7213 12.2909L52.7204 12.2906L47.8985 10.129C47.3507 9.88344 46.8365 9.32331 46.5765 8.62401C46.3133 7.91611 46.3054 7.05221 46.7926 6.20411L46.7934 6.20288L46.7941 6.20165C47.2589 5.41499 47.9032 4.99221 48.5824 4.83617ZM50.4227 5.25773C49.3586 4.79218 47.8622 4.85871 46.9976 6.32185L46.9568 6.39519C46.1288 7.93443 47.0459 9.48775 47.9952 9.91329L52.817 12.0749C53.8811 12.5404 55.4773 12.4074 56.2422 11.044C57.007 9.71383 56.5747 8.01785 55.4774 7.51902L50.4227 5.25773ZM56.7113 25.0438C56.7113 26.3112 56.3168 27.3313 55.6172 28.1405C54.9217 28.9449 53.9371 29.5267 52.7769 29.9467C50.4616 30.7847 47.3831 31 44.3041 31C41.225 31 38.1464 30.7847 35.8311 29.9467C34.671 29.5267 33.6863 28.9449 32.9908 28.1405C32.2912 27.3313 31.8967 26.3112 31.8967 25.0438C31.8967 23.7844 32.2915 22.7685 32.991 21.9611C33.6863 21.1585 34.6707 20.5757 35.8307 20.1537C38.146 19.3114 41.2244 19.0877 44.3041 19.0877C47.3837 19.0878 50.4621 19.3114 52.7773 20.1537C53.9373 20.5757 54.9217 21.1585 55.6171 21.9611C56.3165 22.7685 56.7113 23.7844 56.7113 25.0438ZM47.3337 13.2656C50.5001 13.2285 53.4494 13.0965 55.3834 12.8709L55.3876 12.8704L55.3917 12.8701C56.0362 12.8178 56.8191 12.9024 57.4593 13.2611C58.1142 13.628 58.6035 14.2747 58.64 15.2914L58.6422 15.378C58.6552 16.2653 58.3356 16.9342 57.8494 17.407C57.3537 17.8891 56.6986 18.1547 56.0826 18.2603L56.0775 18.2612L56.0722 18.2618C54.0772 18.5133 49.3413 18.671 44.5418 18.6877C39.7431 18.7043 34.8467 18.58 32.5331 18.2615L32.5308 18.2612L32.5285 18.2608C31.8672 18.1564 31.1824 17.901 30.6823 17.4055C30.1739 16.9018 29.8801 16.1731 29.9688 15.1796C30.0434 14.2738 30.5572 13.6625 31.1976 13.2991C31.8108 12.9512 32.5468 12.8247 33.1586 12.8656L33.2174 12.8702L33.2188 12.8703L33.2203 12.8704C35.1895 13.0641 38.1095 13.1951 41.2743 13.2631V11.9086C41.2743 10.6404 42.5883 9.54391 44.171 9.54391C44.9615 9.54391 45.7409 9.77157 46.3292 10.1757C46.9186 10.5806 47.3337 11.178 47.3337 11.9086V13.2656ZM47.0012 2.73048C47.0012 5.46214 45.3325 7.7358 43.0512 9.4057C40.768 11.0769 37.8374 12.1709 35.2256 12.5417L35.2249 12.5417C34.5805 12.6312 33.8283 12.525 33.1917 12.1593C32.5487 11.7899 32.0302 11.1586 31.8674 10.2221L31.8673 10.2222C31.611 8.8307 32.5595 7.37826 34.0497 7.08746L34.2544 7.04668C36.3557 6.61966 38.0213 6.02602 39.1655 5.2762C40.3427 4.50481 40.9417 3.58843 40.9417 2.53094V2.19842C40.9417 1.62746 41.3312 1.07536 41.8545 0.679658C42.3855 0.278064 43.0997 0 43.8385 0C44.5296 4.40666e-06 45.3036 0.211107 45.9105 0.578771C46.5117 0.943007 47.0012 1.49665 47.0012 2.19842V2.73048Z" fill="url(#paint1_linear_661_1823)"/>
<path d="M8.37897 4.39316C8.31246 4.79221 8.24596 5.29102 8.2127 5.85634H11.6046V3.92761C11.6046 2.96324 12.9015 2.03213 14.2649 2.03213C15.5618 2.03213 17.1248 2.76372 17.1248 3.92761V5.85634H17.4573C18.4549 5.85634 19.5191 7.08674 19.5191 8.38364C19.5191 9.51428 18.6545 10.9775 17.4573 10.9775H17.1248V13.804C18.2222 13.7375 19.1533 13.6378 19.8183 13.538C20.3837 13.4382 20.5832 13.139 20.6497 12.5736C20.816 10.2791 20.7162 6.45491 20.3172 4.59269C19.9846 3.19602 21.215 1.99888 22.7114 1.7661C23.9086 1.56657 25.538 2.26491 25.8041 3.56181C26.3361 6.15562 26.4359 11.9751 25.8706 15.4667C25.671 16.6306 24.3409 17.6283 23.31 17.994C21.7138 18.5594 19.3528 18.8586 17.158 18.9917V22.5498C20.4169 22.5166 23.443 22.3836 25.4383 22.1508C26.7684 21.9845 28.3979 22.8491 28.4644 24.5451C28.5309 26.2743 27.2672 27.2387 26.1033 27.4382C22.1461 27.937 7.21508 28.07 2.62603 27.4382C1.36238 27.2387 0.0322206 26.0748 0.264998 24.4453C0.497776 22.8491 2.06071 21.9845 3.25786 22.1508C5.2531 22.3503 8.31246 22.4833 11.5714 22.5498V18.9584C9.14381 18.8254 6.71627 18.4929 5.41937 17.994C4.38849 17.6283 3.09159 16.5974 2.7923 15.1342C2.26024 12.3076 2.49302 6.15562 2.7923 3.69483C2.99183 2.29816 4.62127 1.56657 5.88492 1.7661C7.48111 2.03213 8.51199 3.12951 8.37897 4.39316ZM7.94667 10.9775C7.97992 11.6093 7.97992 12.1746 8.04643 12.7067C8.07969 13.1722 8.31246 13.4382 8.84453 13.5048C9.57611 13.6378 10.5405 13.7375 11.6046 13.804V10.9775H7.94667Z" fill="url(#paint2_linear_661_1823)"/>
<path d="M11.6031 10.9775V13.8041C10.539 13.7376 9.57459 13.6378 8.843 13.5048C8.32757 13.4404 8.09299 13.1887 8.04861 12.7497L8.04491 12.7067C7.9784 12.1746 7.97843 11.6093 7.94518 10.9775H11.6031ZM8.19297 11.2139C8.21452 11.7164 8.22179 12.1564 8.268 12.5793L8.27947 12.6774L8.28032 12.6836L8.2807 12.6898C8.29482 12.8876 8.34871 13.0103 8.42668 13.0908C8.50066 13.1672 8.6223 13.2323 8.82969 13.2642L8.87232 13.2702L8.87886 13.271L8.88533 13.2722C9.54666 13.3924 10.4074 13.4858 11.3667 13.5516V11.2139H8.19297ZM17.1233 3.92763C17.1233 2.78193 15.6088 2.05516 14.3244 2.03271L14.2634 2.03217C12.9 2.03218 11.6031 2.96326 11.6031 3.92763V5.85633H8.21121C8.24031 5.36168 8.29484 4.91795 8.35258 4.54742L8.37743 4.3932C8.51045 3.12955 7.47961 2.03218 5.88343 1.76614C4.61978 1.56662 2.99033 2.29818 2.7908 3.69484L2.77679 3.81289C2.4844 6.34711 2.26705 12.3518 2.7908 15.1342C3.09009 16.5974 4.38698 17.6283 5.41786 17.9941C6.71476 18.4929 9.14233 18.8254 11.5699 18.9584V22.5499C8.31099 22.4834 5.25161 22.3503 3.25637 22.1508C2.05923 21.9845 0.496254 22.8491 0.263476 24.4453L0.253703 24.5214C0.0722503 26.1109 1.3806 27.2417 2.6245 27.4382C7.17769 28.065 21.9119 27.939 26.0071 27.4498L26.1019 27.4382C27.2476 27.2417 28.49 26.3042 28.465 24.6256L28.4629 24.5451C28.3964 22.8491 26.7669 21.9845 25.4368 22.1508C23.4415 22.3836 20.4154 22.5166 17.1565 22.5499V18.9917C19.317 18.8607 21.6385 18.5687 23.2331 18.0204L23.3085 17.9941C24.3233 17.634 25.6281 16.6617 25.8589 15.5212L25.8691 15.4667C26.4256 12.0296 26.3375 6.33693 25.8271 3.68576L25.8026 3.56187C25.5366 2.26497 23.9071 1.56663 22.71 1.76614L22.64 1.77776C21.1755 2.03638 19.9883 3.21783 20.3156 4.59266C20.7147 6.45488 20.8145 10.2791 20.6482 12.5736C20.5817 13.139 20.3821 13.4383 19.8168 13.538C19.1517 13.6378 18.2206 13.7376 17.1233 13.8041V10.9775H17.4558C18.6529 10.9775 19.5175 9.51428 19.5175 8.38365C19.5175 7.08675 18.4534 5.85633 17.4558 5.85633V5.61992C18.049 5.61992 18.6251 5.9807 19.0425 6.4825C19.4635 6.98864 19.7539 7.6726 19.7539 8.38365C19.7539 9.00266 19.5197 9.69888 19.1274 10.2429C18.7356 10.786 18.1572 11.2139 17.4558 11.2139H17.3597V13.552C18.3405 13.4865 19.1726 13.3954 19.7784 13.3047C20.0236 13.261 20.1547 13.1811 20.2364 13.081C20.3228 12.9751 20.3814 12.8134 20.4128 12.5508C20.5777 10.2667 20.4766 6.47327 20.0847 4.64315C19.8994 3.85861 20.1561 3.13438 20.6513 2.5847C21.1438 2.03799 21.8756 1.65727 22.6711 1.53297V1.5329C22.6719 1.53276 22.6727 1.53265 22.6736 1.53251V1.53259C23.3275 1.42427 24.0852 1.5607 24.7158 1.89381C25.3479 2.22766 25.8828 2.77658 26.0341 3.51431C26.3048 4.83353 26.4629 6.95472 26.4837 9.17535C26.5046 11.3979 26.388 13.7404 26.1024 15.5045L26.1021 15.5067C25.9899 16.161 25.5662 16.7457 25.0593 17.2049C24.5499 17.6664 23.9326 18.0234 23.3875 18.2168L23.3874 18.2169C21.8129 18.7745 19.5288 19.0739 17.3929 19.2136V22.3108C20.4563 22.2748 23.2881 22.15 25.2205 21.9374L25.4094 21.916C26.1317 21.8262 26.9295 22.0152 27.5592 22.4559C28.1848 22.8938 28.648 23.5839 28.6971 24.4924L28.6991 24.5358V24.536C28.7713 26.413 27.3912 27.457 26.1418 27.6712L26.1366 27.6721L26.1314 27.6727C24.1364 27.9242 19.4005 28.082 14.6009 28.0986C9.80224 28.1152 4.90583 27.9909 2.59226 27.6724L2.58995 27.6721L2.58764 27.6717C1.23746 27.4585 -0.226932 26.2068 0.029459 24.4119L0.0295359 24.4112C0.28296 22.6735 1.97359 21.7384 3.28154 21.9157C5.21803 22.1093 8.1678 22.2402 11.3335 22.3082V19.1816C8.97948 19.0408 6.62941 18.7126 5.33528 18.2155C4.2537 17.8304 2.87972 16.7487 2.55917 15.1816L2.55878 15.1798L2.55848 15.1779C2.28771 13.7395 2.21355 11.4742 2.24266 9.27424C2.27182 7.07016 2.40509 4.90789 2.55609 3.66629L2.5564 3.66383L2.55678 3.66144C2.66946 2.87273 3.1851 2.2848 3.82198 1.92598C4.43689 1.57955 5.18527 1.43344 5.85565 1.5232L5.92029 1.53259L5.92229 1.5329C7.59336 1.81141 8.76327 2.98637 8.6126 4.4179L8.61183 4.42498L8.61068 4.43206C8.55524 4.76471 8.49995 5.16727 8.46447 5.61992H11.3667V3.92763C11.3667 3.33865 11.7576 2.80227 12.2845 2.42587C12.8178 2.045 13.5306 1.79577 14.2634 1.79577C14.951 1.79577 15.7082 1.98843 16.3004 2.34014C16.8891 2.68984 17.3597 3.22766 17.3597 3.92763V5.61992H17.4558V5.85633H17.1233V3.92763Z" fill="url(#paint3_linear_661_1823)"/>
<defs>
<linearGradient id="paint0_linear_661_1823" x1="44.2998" y1="0.236328" x2="44.2998" y2="30.7635" gradientUnits="userSpaceOnUse">
<stop offset="0.194111" stop-color="#537BFF"/>
<stop offset="1" stop-color="#8EC5FF"/>
</linearGradient>
<linearGradient id="paint1_linear_661_1823" x1="44.2979" y1="0" x2="44.2979" y2="31" gradientUnits="userSpaceOnUse">
<stop offset="0.194111" stop-color="#537BFF"/>
<stop offset="1" stop-color="#8EC5FF"/>
</linearGradient>
<linearGradient id="paint2_linear_661_1823" x1="14.3526" y1="1.73242" x2="14.3526" y2="27.8636" gradientUnits="userSpaceOnUse">
<stop offset="0.194111" stop-color="#537BFF"/>
<stop offset="1" stop-color="#8EC5FF"/>
</linearGradient>
<linearGradient id="paint3_linear_661_1823" x1="14.3509" y1="1.49609" x2="14.3509" y2="28.1" gradientUnits="userSpaceOnUse">
<stop offset="0.194111" stop-color="#537BFF"/>
<stop offset="1" stop-color="#8EC5FF"/>
</linearGradient>
</defs>
</svg>
