<svg width="122" height="53" viewBox="0 0 122 53" fill="none" xmlns="http://www.w3.org/2000/svg">
<g filter="url(#filter0_di_160_479)">
<rect x="10" y="6" width="102" height="33" rx="16.5" fill="white" fill-opacity="0.5" shape-rendering="crispEdges"/>
<path d="M29.7539 17.6289C32.0039 17.6406 33.6328 18.7422 33.6328 20.418C33.6328 21.9941 32.2676 23.0312 30.3047 23.1953V25.2578H34.582V26.1836H24.9727V25.2578H29.2031V23.1953C27.252 23.0312 25.8867 21.9941 25.8867 20.418C25.8867 18.7422 27.5156 17.6406 29.7539 17.6289ZM29.7539 18.543C28.1367 18.5312 26.9648 19.2812 26.9648 20.418C26.9648 21.6016 28.1367 22.3281 29.7539 22.3398C31.3828 22.3281 32.5547 21.6016 32.5547 20.418C32.5547 19.2812 31.3828 18.5312 29.7539 18.543ZM43.8164 19.3867V20.2891H36.6094V17.1484H37.6992V19.3867H43.8164ZM44.9414 21.2148V22.1055H35.332V21.2148H44.9414ZM43.7344 22.9492V25.5156H37.6406V26.4883H44.0977V27.3672H36.5273V24.6953H42.6328V23.8164H36.5039V22.9492H43.7344ZM56.8945 16.9961V19.1055H58.418V20.043H56.8945V22.2578H55.7812V16.9961H56.8945ZM50.2383 17.4648V20.8867C51.6504 20.875 53.1387 20.7637 54.75 20.4414L54.8906 21.3672C53.1211 21.7188 51.5273 21.8242 49.9805 21.8242H49.125V17.4648H50.2383ZM56.8945 22.7383V25.4102H51.2344V26.4648H57.2578V27.3672H50.1328V24.5547H55.7812V23.6172H50.1094V22.7383H56.8945ZM67.8867 16.9961V27.4961H66.7617V16.9961H67.8867ZM61.5117 20.1016C61.5117 21.2031 61.6934 22.7031 62.4844 23.7695C63.2637 22.7266 63.4336 21.2559 63.4453 20.1016V17.8984H64.5117V20.1016C64.5117 21.5781 64.8281 23.3945 66.1406 24.3438L65.4492 25.1406C64.6816 24.5781 64.2305 23.6816 63.9727 22.6797C63.7266 23.7051 63.2754 24.6484 62.4844 25.2227C61.6934 24.6484 61.2422 23.6992 60.9961 22.6797C60.7383 23.6582 60.2988 24.543 59.5664 25.1055L58.8398 24.3438C60.1523 23.3711 60.4688 21.543 60.4805 20.1016V17.8984H61.5117V20.1016Z" fill="#999999"/>
<path d="M82.1445 23.043V25.5391H79.7773V26.5C81.2363 26.4941 81.9688 26.459 82.8359 26.2773L82.9531 27.1094C81.957 27.3438 81.1602 27.3672 79.3438 27.3672H78.6992V24.7656H81.0781V23.8984H78.6758V23.043H82.1445ZM85.8945 23.043V27.4023H84.793V23.9336H82.6016V23.043H85.8945ZM85.8945 16.9961V19.2578H87.418V20.1719H85.8945V22.5391H84.7812V16.9961H85.8945ZM82.9648 17.582V21.9414H78.0547V17.582H82.9648ZM79.1445 18.4727V21.0391H81.875V18.4727H79.1445ZM92.7969 17.2188C95.1055 17.2188 96.5469 17.9688 96.5469 19.2344C96.5469 20.4766 95.1055 21.2148 92.7969 21.2148C90.5 21.2148 89.0469 20.4766 89.0469 19.2344C89.0469 17.9688 90.5 17.2188 92.7969 17.2188ZM92.7969 18.0977C91.1797 18.0977 90.1836 18.5078 90.1953 19.2344C90.1836 19.9375 91.1797 20.3359 92.7969 20.3477C94.4023 20.3359 95.3984 19.9375 95.3984 19.2344C95.3984 18.5078 94.4023 18.0977 92.7969 18.0977ZM96.418 23.8633V27.3672H89.1641V23.8633H96.418ZM90.2656 24.7539V26.4648H95.3398V24.7539H90.2656ZM97.5898 22.0234V22.9258H88.0156V22.0234H97.5898Z" fill="#537BFF"/>
</g>
<defs>
<filter id="filter0_di_160_479" x="0" y="0" width="122" height="53" filterUnits="userSpaceOnUse" color-interpolation-filters="sRGB">
<feFlood flood-opacity="0" result="BackgroundImageFix"/>
<feColorMatrix in="SourceAlpha" type="matrix" values="0 0 0 0 0 0 0 0 0 0 0 0 0 0 0 0 0 0 127 0" result="hardAlpha"/>
<feOffset dy="4"/>
<feGaussianBlur stdDeviation="5"/>
<feComposite in2="hardAlpha" operator="out"/>
<feColorMatrix type="matrix" values="0 0 0 0 0.6 0 0 0 0 0.6 0 0 0 0 0.6 0 0 0 0.2 0"/>
<feBlend mode="normal" in2="BackgroundImageFix" result="effect1_dropShadow_160_479"/>
<feBlend mode="normal" in="SourceGraphic" in2="effect1_dropShadow_160_479" result="shape"/>
<feColorMatrix in="SourceAlpha" type="matrix" values="0 0 0 0 0 0 0 0 0 0 0 0 0 0 0 0 0 0 127 0" result="hardAlpha"/>
<feOffset dx="1" dy="1"/>
<feGaussianBlur stdDeviation="0.5"/>
<feComposite in2="hardAlpha" operator="arithmetic" k2="-1" k3="1"/>
<feColorMatrix type="matrix" values="0 0 0 0 1 0 0 0 0 1 0 0 0 0 1 0 0 0 1 0"/>
<feBlend mode="normal" in2="shape" result="effect2_innerShadow_160_479"/>
</filter>
</defs>
</svg>
