<svg width="48" height="48" viewBox="0 0 48 48" fill="none" xmlns="http://www.w3.org/2000/svg">
<g opacity="0.16">
<path d="M3.19141 3.23097V14.3029C3.19141 14.5276 3.37353 14.7096 3.59815 14.7096H14.6698C14.8945 14.7096 15.0766 14.5275 15.0766 14.3029V3.23097C15.0766 3.00631 14.8945 2.82422 14.6698 2.82422H3.59815C3.37349 2.82422 3.19141 3.00635 3.19141 3.23097ZM4.76018 4.39303H13.5078V13.1408H4.76018V4.39303Z" fill="#537BFF"/>
<path d="M6.52005 5.96293H11.7438C11.8497 5.96293 11.9357 6.04892 11.9357 6.15482V11.3787C11.9357 11.4846 11.8497 11.5706 11.7438 11.5706H6.52005C6.41412 11.5706 6.32812 11.4846 6.32812 11.3787V6.15478C6.32812 6.04885 6.41412 5.96289 6.52001 5.96289L6.52005 5.96293Z" fill="#537BFF"/>
<path d="M3.19141 44.7697C3.19141 44.9944 3.37353 45.1764 3.59815 45.1764H14.6698C14.8945 45.1764 15.0766 44.9943 15.0766 44.7697V33.6978C15.0766 33.4731 14.8945 33.291 14.6698 33.291H3.59815C3.37349 33.291 3.19141 33.4731 3.19141 33.6978V44.7697ZM4.76018 34.8598H13.5078V43.6076H4.76018V34.8598Z" fill="#537BFF"/>
<path d="M6.52009 36.4297H11.7438C11.8498 36.4297 11.9357 36.5157 11.9357 36.6216V41.8455C11.9357 41.9514 11.8497 42.0374 11.7438 42.0374H6.52005C6.41412 42.0374 6.32812 41.9514 6.32812 41.8455V36.6216C6.32812 36.5157 6.41412 36.4297 6.52005 36.4297L6.52009 36.4297Z" fill="#537BFF"/>
<path d="M33.3286 14.7096H44.4003C44.625 14.7096 44.807 14.5275 44.807 14.3029V3.23097C44.807 3.00631 44.6249 2.82422 44.4003 2.82422H33.3286C33.104 2.82422 32.9219 3.00635 32.9219 3.23097V14.3029C32.9219 14.5276 33.104 14.7096 33.3286 14.7096ZM34.4906 4.39303H43.2383V13.1408H34.4906V4.39303Z" fill="#537BFF"/>
<path d="M36.2544 5.96289H41.4781C41.5841 5.96289 41.6701 6.04889 41.6701 6.15482V11.3787C41.6701 11.4846 41.5841 11.5706 41.4782 11.5706H36.2544C36.1485 11.5706 36.0625 11.4846 36.0625 11.3786V6.15478C36.0625 6.04885 36.1485 5.96289 36.2544 5.96289Z" fill="#537BFF"/>
<path d="M18.9274 10.1033V8.64743V7.19156H20.3581V5.73595H21.7886V4.28009H20.3581V2.82422H18.9274H17.4969V4.28009H18.9274V5.73595H17.4969H16.0664V7.19156V8.64743V10.1033H17.4969H18.9274Z" fill="#537BFF"/>
<path d="M18.9274 17.3818V15.9259V14.4701H17.4969V13.0142V11.5586H16.0664V13.0142V14.4701V15.9259V17.3818H17.4969H18.9274Z" fill="#537BFF"/>
<path d="M18.9274 42.2324V40.7765V40.743H17.4969V39.2872V37.8316H18.9274H20.3581V37.7981V36.3422V34.8864H21.7886V34.8531V33.3973H20.3581V34.8531H18.9274V33.3973H17.4969V31.9414H16.0664V33.3973V34.8531V34.8864V36.3422V37.7981V37.8316V39.2872V40.743V40.7765V42.2324H17.4969H18.9274Z" fill="#537BFF"/>
<path d="M16.0646 30.4847H17.4951H18.9256H20.3563H21.7868V29.0291H23.2173V27.5732H24.6478V29.0291H26.0785H27.509V30.4847V31.9406H28.9394V30.4847V29.0291V27.5732H27.509H26.0785V26.1173V24.6615H27.509V23.2059V21.75H26.0785H24.6478V23.2059V24.6615H23.2173V26.1173H21.7868H20.3563H18.9256H17.4951H16.0646V27.5732H14.6339H13.2034H11.7729H10.3425V26.1173V24.6615H8.91174V23.2059V21.75H7.48126H6.05078V23.2059V24.6615V26.1173H7.48126H8.91174V27.5732V29.0291H10.3425V30.4847H11.7729V29.0291H13.2034H14.6339H16.0646V30.4847Z" fill="#537BFF"/>
<path d="M14.6336 15.9258H13.2031V17.3816H14.6336V15.9258Z" fill="#537BFF"/>
<path d="M14.6336 18.8379H13.2031V20.2938H14.6336V18.8379Z" fill="#537BFF"/>
<path d="M13.2031 21.7506V23.2064H14.6336H16.0643V24.662H17.4948V23.2064H18.9253H20.356V21.7506H21.7865V23.2064H23.217V21.7506V20.2947V18.8388H24.6475V17.3832V15.9274H26.0782V14.4715V13.0156H24.6475V14.4715H23.217V15.9274H21.7865V17.3832V18.8388H20.356H18.9253V20.2947H17.4948V21.7506H16.0643H14.6336H13.2031Z" fill="#537BFF"/>
<path d="M14.6336 30.4844H13.2031V31.9402H14.6336V30.4844Z" fill="#537BFF"/>
<path d="M11.7734 24.6626V26.1185H13.2039H14.6344V24.6626H13.2039V23.207H11.7734V24.6626Z" fill="#537BFF"/>
<path d="M11.7745 20.2949H10.3438V21.7508V23.2067H11.7745V21.7508V20.2949Z" fill="#537BFF"/>
<path d="M10.3453 18.8373H11.7761H13.2065V17.3816H11.7761V15.9258H10.3453H8.91485H7.48438V17.3816V18.8373H8.91485H10.3453Z" fill="#537BFF"/>
<path d="M8.91485 29.0293H7.48438V30.4849H8.91485V29.0293Z" fill="#537BFF"/>
<path d="M7.48126 18.8379H6.05078V20.2938H7.48126V18.8379Z" fill="#537BFF"/>
<path d="M7.48126 27.5723H6.05078V29.0281H7.48126V27.5723Z" fill="#537BFF"/>
<path d="M4.62188 17.3828H3.19141V18.8384V20.2943V21.7502H4.62188V20.2943V18.8384H6.05262V17.3828H4.62188Z" fill="#537BFF"/>
<path d="M3.19141 26.116V27.5719V29.0278V30.4834H4.62188V29.0278V27.5719V26.116V24.6602H3.19141V26.116Z" fill="#537BFF"/>
<path d="M33.2344 33.3965V34.8524V34.8856H34.6651V34.8524H34.6978V33.3965H34.6651H33.2344Z" fill="#537BFF"/>
<path d="M40.4503 26.116V27.5719H39.0198V29.0278H37.5891V26.116H33.2318V29.0278H30.3709V37.7959H27.5096V40.7409H26.0792V42.2302H24.6484V45.1751H27.5096V42.2302H28.9401V39.285H31.8013V37.8294H34.6625V37.7959H34.6952V37.8294H34.6625V39.285H33.2318V40.7409H31.8013V42.2302H30.3709V45.1751H33.2318V43.7193H34.6625V43.6861H34.6952V43.7193H36.1257V45.1751H37.5892V43.7193H37.5565V43.6861H37.5892V42.2302H34.6952V40.7743H34.6625V40.7409H34.6952V40.7743H37.5565V40.7409H37.5892V40.7743H39.0199V39.285H40.4833V37.8294H40.4504V37.7959H40.4833V36.3401H37.5892V34.8842H37.5565V34.851H37.5892V30.4834H39.0199V31.9392H40.4833V29.0278H41.9138V31.9392H43.3443V33.3951H39.0199V34.8842H40.4504V34.851H40.4833V34.8842H41.9138V37.8294H43.3443V37.7959H43.3772V37.8294H43.3443V39.285H41.9138V40.7743H43.3443V40.7409H43.3772V40.7743H43.3443V42.2302H41.9138V43.6861H40.4833V43.7193H40.4504V45.1751H41.9138V43.7193H43.3443V43.6861H43.3772V43.7193H44.8077V36.3401H43.3772V34.8842H43.3443V34.851H43.3772V33.3951H44.8077V31.9392H43.3772V30.4834H44.8077V26.116H43.3772V24.6602H41.9138V26.116H43.3443V27.5719H41.9138V26.116H40.4833V24.6602H39.0199V26.116H40.4503ZM34.6952 36.3401H31.8013V31.9392H36.1257V36.3401H34.6952ZM37.5891 37.7959V37.8294H37.5564V39.285H36.1257V37.8294H37.5564V37.7959H37.5891Z" fill="#537BFF"/>
<path d="M40.4835 20.2949H40.4506H39.0201V21.7508H37.5893H37.5567V23.2067H36.1259V21.7508H34.6954H34.6625H33.232H31.8016H30.3711V23.2067V24.6623V26.1181H31.8016V24.6623H33.232H34.6628H34.6954H36.1259H37.5567H37.5893H39.0201V23.2067H40.4506H40.4835V21.7508H41.914V20.2949H40.4835Z" fill="#537BFF"/>
<path d="M43.3476 23.2049H43.3805H44.811V21.749V20.2931V18.8373H43.3805V17.3816H43.3476H41.9171V15.9258H40.4866H40.4537H39.0232H37.5925H37.5598H36.129H34.6986H34.6656H33.2351V17.3816H31.8047V18.8373V20.2931H33.2351V18.8373H34.6656H34.6986V17.3816H36.129H37.5598V18.8373H37.5925H39.0232H40.4537H40.4866H41.9171H43.3476V20.2931V21.749H41.9171V23.2049H43.3476Z" fill="#537BFF"/>
<path d="M31.8026 7.19194V5.73633H30.3721H28.9414V7.19194H30.3721H31.8026Z" fill="#537BFF"/>
<path d="M31.8016 13.0156H30.3711V14.4715H31.8016V13.0156Z" fill="#537BFF"/>
<path d="M28.9414 15.9266V17.3824H30.3721V15.9266V14.4707H28.9414V15.9266Z" fill="#537BFF"/>
<path d="M28.9422 24.6602H27.5117V26.116H28.9422V24.6602Z" fill="#537BFF"/>
<path d="M26.082 13.0138H27.5125V14.4697H28.943V13.0138H30.3737V11.5582H31.8042V10.1024V8.64648H30.3737H28.943V10.1024H27.5125H26.082V11.5582V13.0138Z" fill="#537BFF"/>
<path d="M26.082 18.8373V20.2931H27.5125H28.943V18.8373H27.5125V17.3816V15.9258H26.082V17.3816V18.8373Z" fill="#537BFF"/>
<path d="M24.65 34.8852V36.3411H23.2195H21.7891V37.7969V37.8304H23.2195H24.65H26.0808V37.7969V36.3411H27.5112V34.8852V34.852V33.3961H26.0808V31.9402H24.65V30.4844H23.2195V31.9402V33.3961H24.65V34.852V34.8852Z" fill="#537BFF"/>
<path d="M24.6492 4.28009H26.08V5.73595V7.19156H27.5104V5.73595V4.28009V2.82422H26.08H24.6492H23.2188V4.28009V5.73595H24.6492V4.28009Z" fill="#537BFF"/>
<path d="M24.65 10.1031H26.0808V8.64727H24.65V7.19141H23.2195V8.64727H21.7891V10.1031H23.2195V11.559H24.65V10.1031Z" fill="#537BFF"/>
<path d="M24.6508 40.741V39.2852H23.2203H21.7899H20.3594V40.741V40.7745H21.7899H23.2203V42.2304H24.6508V40.7745V40.741Z" fill="#537BFF"/>
<path d="M23.2195 11.5586H21.7891V13.0142V14.4701H23.2195V13.0142V11.5586Z" fill="#537BFF"/>
<path d="M21.787 45.1774V43.7215V43.6883V42.2324H20.3565V43.6883H18.9258V43.7215V45.1774H20.3565H21.787Z" fill="#537BFF"/>
<path d="M20.3565 10.1035H18.9258V11.5594H20.3565V10.1035Z" fill="#537BFF"/>
<path d="M20.3565 13.0156H18.9258V14.4715H20.3565V13.0156Z" fill="#537BFF"/>
<path d="M0.522961 8.00593C0.811755 8.00593 1.04589 7.77179 1.04589 7.48299V1.54371C1.04589 1.26921 1.26922 1.04587 1.54371 1.04587H7.48287C7.7717 1.04587 8.00579 0.811735 8.00579 0.522935C8.00579 0.234135 7.77166 0 7.48287 0H1.54371C0.692514 0 0 0.692529 0 1.54374V7.48303C0 7.77183 0.23413 8.00596 0.522924 8.00596L0.522961 8.00593Z" fill="#537BFF"/>
<path d="M8.00575 47.4772C8.00575 47.1883 7.77162 46.9542 7.48283 46.9542H1.54367C1.26918 46.9542 1.04585 46.7309 1.04585 46.4564V40.5171C1.04585 40.2283 0.811718 39.9941 0.522925 39.9941C0.234131 39.9941 0 40.2283 0 40.5171V46.4564C0 47.3076 0.692515 48.0001 1.54371 48.0001H7.48287C7.7717 48.0001 8.00579 47.766 8.00579 47.4772H8.00575Z" fill="#537BFF"/>
<path d="M47.4751 39.9941C47.1863 39.9941 46.9521 40.2283 46.9521 40.5171V46.4564C46.9521 46.7309 46.7288 46.9542 46.4543 46.9542H40.5151C40.2263 46.9542 39.9922 47.1884 39.9922 47.4772C39.9922 47.766 40.2263 48.0001 40.5151 48.0001H46.4543C47.3055 48.0001 47.998 47.3076 47.998 46.4564V40.5171C47.998 40.2283 47.7638 39.9941 47.4751 39.9941Z" fill="#537BFF"/>
<path d="M46.4543 3.71212e-05H40.5151C40.2263 3.71212e-05 39.9922 0.234174 39.9922 0.522973C39.9922 0.811773 40.2263 1.04591 40.5151 1.04591H46.4543C46.7288 1.04591 46.9521 1.26924 46.9521 1.54374V7.48303C46.9521 7.77183 47.1863 8.00596 47.4751 8.00596C47.7638 8.00596 47.998 7.77183 47.998 7.48303V1.54374C47.998 0.69253 47.3055 0 46.4543 0L46.4543 3.71212e-05Z" fill="#537BFF"/>
</g>
</svg>
