<svg width="16" height="17" viewBox="0 0 16 17" fill="none" xmlns="http://www.w3.org/2000/svg">
<rect x="0.5" y="1" width="15" height="15" rx="7.5" stroke="#999999"/>
<path d="M7.24641 10.1757C7.25837 8.72703 7.7488 8.28378 8.57416 7.82973C9.06459 7.55946 9.44737 7.12703 9.44737 6.52162C9.44737 5.78649 8.8134 5.32162 8.02392 5.32162C7.34211 5.32162 6.66029 5.68919 6.58852 6.57568H5.5C5.55981 5.26757 6.66029 4.5 8.02392 4.5C9.51914 4.5 10.5 5.37568 10.5 6.56486C10.5 7.40811 10.0574 8.0027 9.31579 8.41351C8.57416 8.82432 8.29904 9.23514 8.27512 10.1757V10.2297H7.24641V10.1757ZM7.79665 12.5C7.37799 12.5 7.01914 12.1865 7.0311 11.7973C7.01914 11.4189 7.37799 11.1054 7.79665 11.1054C8.21531 11.1054 8.5622 11.4189 8.5622 11.7973C8.5622 12.1865 8.21531 12.5 7.79665 12.5Z" fill="#999999"/>
</svg>
