<svg width="28" height="8" viewBox="0 0 28 8" fill="none" xmlns="http://www.w3.org/2000/svg">
<path d="M4 0C6.20897 0.000201043 8 1.79098 8 4C8 6.20901 6.20897 7.9998 4 8C1.79086 8 0 6.20914 0 4C0 1.79086 1.79086 0 4 0ZM5.41113 1.41211C5.02128 1.41211 4.70508 1.72832 4.70508 2.11816C4.70512 2.50798 5.02131 2.82422 5.41113 2.82422C5.80083 2.82408 6.11714 2.50789 6.11719 2.11816C6.11719 1.7284 5.80086 1.41225 5.41113 1.41211Z" fill="white"/>
<path d="M14 0C16.2091 0 18 1.79086 18 4C18 6.20914 16.2091 8 14 8C11.7909 8 10 6.20914 10 4C10 1.79086 11.7909 0 14 0ZM15.4111 1.41211C15.0213 1.41217 14.7051 1.72835 14.7051 2.11816C14.7051 2.50794 15.0214 2.82416 15.4111 2.82422C15.801 2.82422 16.1171 2.50798 16.1172 2.11816C16.1172 1.72832 15.801 1.41211 15.4111 1.41211Z" fill="white"/>
<path d="M24 0C26.2091 0 28 1.79086 28 4C28 6.20914 26.2091 8 24 8C21.791 7.9998 20 6.20901 20 4C20 1.79098 21.791 0.000201044 24 0ZM25.4111 1.41211C25.0215 1.41237 24.7061 1.72848 24.7061 2.11816C24.7061 2.50782 25.0215 2.82396 25.4111 2.82422C25.801 2.82422 26.1171 2.50798 26.1172 2.11816C26.1172 1.72832 25.801 1.41211 25.4111 1.41211Z" fill="white"/>
</svg>
