<svg width="275" height="85" viewBox="0 0 275 85" fill="none" xmlns="http://www.w3.org/2000/svg">
<g filter="url(#filter0_d_604_1758)">
<rect x="20" y="24" width="234.266" height="37" rx="6" fill="white"/>
<path d="M53.1606 40.8533C52.5426 40.9392 51.7187 40.6474 51.5642 39.7549C51.444 39.1027 51.8903 38.4161 52.5941 38.2788C54.8771 37.8326 56.2503 37.0088 56.2503 35.8073V35.6357C56.2503 35.1551 56.9198 34.623 57.6235 34.623C58.293 34.623 59.1341 35.035 59.1341 35.6357V35.9103C59.1341 38.6221 55.8212 40.4757 53.1606 40.8533ZM61.0223 37.2147L63.6314 38.3818C64.1978 38.6393 64.421 39.5146 64.0262 40.2011C63.6314 40.9048 62.8074 40.9735 62.2582 40.7332L59.7692 39.6176C59.2714 39.3945 58.7908 38.5706 59.2542 37.7639C59.7005 37.0088 60.473 36.9744 61.0223 37.2147ZM51.8045 43.8054C51.1522 43.7025 50.4999 43.3077 50.5858 42.3466C50.6544 41.5055 51.5299 41.2138 52.1306 41.2653C53.1777 41.3682 54.7398 41.4369 56.422 41.4712V40.6474C56.422 40.081 57.0227 39.5489 57.7952 39.5489C58.5676 39.5489 59.3057 39.9952 59.3057 40.6474V41.4712C60.9879 41.4541 62.5671 41.3854 63.5971 41.2653C64.2322 41.2138 65.1076 41.4369 65.1419 42.398C65.1763 43.2905 64.524 43.7025 63.9232 43.8054C61.8805 44.0629 54.1733 44.1315 51.8045 43.8054ZM64.1463 47.4269C64.1463 49.9328 61.0394 50.379 57.8638 50.379C54.6883 50.379 51.5813 49.9328 51.5813 47.4269C51.5813 44.9382 54.6883 44.4748 57.8638 44.4748C61.0394 44.4748 64.1463 44.9382 64.1463 47.4269ZM61.2626 47.4441C61.2626 46.9807 60.1983 46.912 57.8467 46.912C55.5122 46.912 54.4651 47.015 54.4651 47.4441C54.4651 47.8388 55.5122 47.959 57.8467 47.959C60.1983 47.959 61.2626 47.856 61.2626 47.4441Z" fill="url(#paint0_linear_604_1758)"/>
<path d="M64.1473 47.4259C64.1472 44.9761 61.1367 44.4887 58.0136 44.4741L57.8648 44.4738C54.6892 44.4738 51.5823 44.9372 51.5823 47.4259L51.5829 47.4842C51.6301 49.9 54.6177 50.3636 57.716 50.3776L57.8648 50.378C61.0404 50.378 64.1473 49.9317 64.1473 47.4259ZM61.1415 47.443C61.1415 47.3877 61.1156 47.3311 61.0038 47.2725C60.8869 47.2111 60.6978 47.1612 60.4212 47.1242C59.8707 47.0503 59.0252 47.033 57.8476 47.033C56.6796 47.033 55.8425 47.0589 55.2987 47.1369C55.0255 47.176 54.8383 47.2269 54.7224 47.2872C54.6096 47.3458 54.5881 47.399 54.5881 47.443C54.5881 47.474 54.6038 47.5229 54.7204 47.5807C54.8372 47.6386 55.0254 47.6886 55.2987 47.7277C55.8427 47.8058 56.6802 47.8359 57.8476 47.8359V47.9579C55.5313 47.9579 54.4825 47.8397 54.4662 47.4522L54.466 47.443C54.466 47.014 55.5131 46.911 57.8476 46.911L58.0643 46.9112C60.2647 46.9156 61.2635 46.9941 61.2635 47.443L61.2633 47.4526C61.2468 47.8566 60.1809 47.9579 57.8476 47.9579V47.8359C59.0241 47.8359 59.8702 47.81 60.4208 47.7341C60.6974 47.6959 60.888 47.6465 61.0063 47.5879C61.1233 47.53 61.1415 47.4793 61.1415 47.443ZM59.3067 40.6464C59.3067 40.0043 58.5914 39.5619 57.8323 39.5482L57.7961 39.5479C57.0237 39.5479 56.4229 40.08 56.4229 40.6464V41.4702C54.7407 41.4359 53.1787 41.3672 52.1316 41.2642C51.5308 41.2128 50.6553 41.5045 50.5867 42.3455C50.5009 43.3067 51.1531 43.7014 51.8054 43.8044C54.1557 44.1279 61.7614 44.0629 63.8752 43.8104L63.9241 43.8044C64.5249 43.7014 65.1772 43.2895 65.1429 42.397C65.1085 41.4359 64.2331 41.2128 63.598 41.2642C62.5681 41.3844 60.9888 41.453 59.3067 41.4702V40.6464ZM59.135 35.6347C59.135 35.0433 58.32 34.635 57.656 34.6223L57.6245 34.622C56.9207 34.622 56.2512 35.1541 56.2512 35.6347V35.8063L56.251 35.8344C56.2297 37.0206 54.8602 37.835 52.595 38.2778C51.8913 38.4151 51.445 39.1016 51.5651 39.7538C51.7196 40.6463 52.5435 40.9381 53.1615 40.8523C55.8013 40.4776 59.0833 38.6499 59.1344 35.9727L59.135 35.9093V35.6347ZM60.0732 36.9961C60.4096 36.9188 60.7554 36.9697 61.0443 37.09L61.0721 37.1019L61.073 37.1023L63.6821 38.2694L63.6825 38.2696L63.6828 38.2697C64.009 38.4179 64.2257 38.7382 64.3091 39.1023C64.3928 39.4673 64.3464 39.8889 64.1335 40.2598C63.6983 41.0355 62.7967 41.1005 62.2102 40.8439L62.2097 40.8437L62.2092 40.8435L59.7202 39.7279C59.4375 39.6011 59.172 39.312 59.0378 38.9511C58.902 38.5857 58.8979 38.1399 59.1494 37.7021L59.1498 37.7015L59.1501 37.7009C59.3901 37.2948 59.7226 37.0766 60.0732 36.9961ZM61.0232 37.2137C60.4739 36.9734 59.7015 37.0077 59.2552 37.7629L59.2341 37.8007C58.8067 38.5952 59.2801 39.3969 59.7701 39.6165L62.2591 40.7322C62.8084 40.9725 63.6323 40.9038 64.0271 40.2001C64.4219 39.5136 64.1988 38.6382 63.6323 38.3808L61.0232 37.2137ZM64.2693 47.4259C64.2693 48.08 64.0656 48.6065 63.7045 49.0241C63.3455 49.4393 62.8372 49.7396 62.2384 49.9563C61.0433 50.3889 59.4542 50.5 57.8648 50.5C56.2754 50.5 54.6863 50.3889 53.4912 49.9563C52.8923 49.7396 52.3841 49.4393 52.025 49.0241C51.6639 48.6065 51.4603 48.08 51.4603 47.4259C51.4603 46.7758 51.6641 46.2515 52.0251 45.8348C52.3841 45.4205 52.8922 45.1197 53.491 44.9019C54.6861 44.4672 56.2751 44.3517 57.8648 44.3517C59.4545 44.3517 61.0435 44.4672 62.2386 44.9019C62.8374 45.1197 63.3455 45.4205 63.7044 45.8348C64.0655 46.2515 64.2693 46.7758 64.2693 47.4259ZM59.4287 41.3468C61.0631 41.3276 62.5855 41.2595 63.5838 41.143L63.586 41.1428L63.5881 41.1426C63.9208 41.1157 64.3249 41.1593 64.6554 41.3444C64.9934 41.5338 65.246 41.8676 65.2648 42.3923L65.266 42.437C65.2727 42.895 65.1077 43.2402 64.8568 43.4843C64.6009 43.7331 64.2627 43.8701 63.9448 43.9247L63.9421 43.9251L63.9394 43.9254C62.9096 44.0552 60.465 44.1367 57.9875 44.1452C55.5105 44.1538 52.983 44.0897 51.7888 43.9253L51.7876 43.9251L51.7864 43.9249C51.4451 43.871 51.0916 43.7392 50.8334 43.4835C50.571 43.2235 50.4193 42.8474 50.4651 42.3347C50.5036 41.8671 50.7688 41.5516 51.0994 41.3641C51.4159 41.1845 51.7959 41.1192 52.1116 41.1403L52.142 41.1427L52.1427 41.1427L52.1435 41.1428C53.16 41.2428 54.6673 41.3104 56.3009 41.3455V40.6464C56.3009 39.9918 56.9791 39.4259 57.7961 39.4259C58.2042 39.4259 58.6065 39.5434 58.9101 39.752C59.2144 39.961 59.4287 40.2693 59.4287 40.6464V41.3468ZM59.257 35.9093C59.257 37.3192 58.3957 38.4927 57.2181 39.3546C56.0395 40.2171 54.5268 40.7818 53.1786 40.9731L53.1783 40.9732C52.8456 41.0193 52.4573 40.9645 52.1287 40.7758C51.7968 40.5851 51.5292 40.2593 51.4451 39.7759L51.4451 39.776C51.3128 39.0578 51.8024 38.3081 52.5716 38.158L52.6773 38.137C53.762 37.9166 54.6217 37.6102 55.2124 37.2232C55.82 36.8251 56.1292 36.3521 56.1292 35.8063V35.6347C56.1292 35.34 56.3303 35.055 56.6003 34.8508C56.8744 34.6435 57.2431 34.5 57.6245 34.5C57.9812 34.5 58.3808 34.609 58.694 34.7987C59.0043 34.9867 59.257 35.2725 59.257 35.6347V35.9093Z" fill="url(#paint1_linear_604_1758)"/>
<path d="M39.3232 36.7698C39.2889 36.9757 39.2546 37.2332 39.2374 37.525H40.9883V36.5295C40.9883 36.0317 41.6577 35.5512 42.3615 35.5512C43.0309 35.5512 43.8377 35.9288 43.8377 36.5295V37.525H44.0093C44.5243 37.525 45.0736 38.16 45.0736 38.8294C45.0736 39.4129 44.6273 40.1681 44.0093 40.1681H43.8377V41.627C44.4041 41.5927 44.8848 41.5412 45.2281 41.4897C45.5199 41.4382 45.6229 41.2837 45.6572 40.992C45.743 39.8077 45.6915 37.8339 45.4856 36.8728C45.3139 36.1519 45.949 35.534 46.7215 35.4139C47.3394 35.3109 48.1805 35.6713 48.3178 36.3407C48.5925 37.6794 48.644 40.683 48.3522 42.4852C48.2492 43.0859 47.5626 43.6008 47.0304 43.7896C46.2065 44.0814 44.9878 44.2358 43.8549 44.3045V46.141C45.5371 46.1238 47.0991 46.0551 48.129 45.935C48.8156 45.8492 49.6567 46.2954 49.6911 47.1708C49.7254 48.0633 49.0731 48.561 48.4723 48.664C46.4296 48.9214 38.7224 48.9901 36.3536 48.664C35.7013 48.561 35.0147 47.9603 35.1349 47.1193C35.255 46.2954 36.0618 45.8492 36.6798 45.935C37.7097 46.038 39.2889 46.1066 40.9711 46.141V44.2873C39.718 44.2187 38.465 44.047 37.7955 43.7896C37.2634 43.6008 36.5939 43.0687 36.4394 42.3135C36.1648 40.8546 36.285 37.6794 36.4394 36.4093C36.5424 35.6885 37.3835 35.3109 38.0358 35.4139C38.8598 35.5512 39.3919 36.1176 39.3232 36.7698ZM39.1001 40.1681C39.1172 40.4942 39.1172 40.786 39.1516 41.0606C39.1687 41.3009 39.2889 41.4382 39.5635 41.4725C39.9412 41.5412 40.439 41.5927 40.9883 41.627V40.1681H39.1001Z" fill="url(#paint2_linear_604_1758)"/>
<path d="M40.9894 40.167V41.6259C40.4401 41.5916 39.9423 41.5401 39.5646 41.4715C39.2986 41.4382 39.1775 41.3083 39.1546 41.0818L39.1527 41.0596C39.1184 40.7849 39.1184 40.4932 39.1012 40.167H40.9894ZM39.2291 40.2891C39.2402 40.5484 39.244 40.7755 39.2678 40.9938L39.2738 41.0444L39.2742 41.0476L39.2744 41.0509C39.2817 41.1529 39.3095 41.2163 39.3497 41.2578C39.3879 41.2972 39.4507 41.3308 39.5578 41.3473L39.5798 41.3504L39.5832 41.3508L39.5865 41.3514C39.9279 41.4135 40.3722 41.4617 40.8674 41.4956V40.2891H39.2291ZM43.8388 36.5284C43.8388 35.9371 43.0571 35.562 42.3941 35.5504L42.3626 35.5501C41.6588 35.5501 40.9894 36.0307 40.9894 36.5284V37.5239H39.2385C39.2535 37.2686 39.2817 37.0396 39.3115 36.8483L39.3243 36.7687C39.393 36.1165 38.8609 35.5501 38.037 35.4128C37.3847 35.3098 36.5436 35.6874 36.4406 36.4083L36.4333 36.4692C36.2824 37.7772 36.1702 40.8764 36.4406 42.3125C36.5951 43.0677 37.2645 43.5997 37.7966 43.7885C38.4661 44.046 39.7192 44.2176 40.9722 44.2863V46.1399C39.29 46.1056 37.7108 46.0369 36.6809 45.9339C36.0629 45.8481 35.2562 46.2944 35.136 47.1182L35.131 47.1574C35.0373 47.9779 35.7126 48.5615 36.3547 48.6629C38.705 48.9864 46.3106 48.9214 48.4245 48.6689L48.4735 48.6629C49.0649 48.5615 49.7062 48.0776 49.6933 47.2112L49.6922 47.1697C49.6578 46.2944 48.8167 45.8481 48.1301 45.9339C47.1002 46.0541 45.5382 46.1227 43.856 46.1399V44.3034C44.9712 44.2358 46.1695 44.0851 46.9926 43.8021L47.0316 43.7885C47.5554 43.6027 48.2289 43.1008 48.3481 42.5122L48.3533 42.4841C48.6405 40.7101 48.5951 37.7719 48.3316 36.4036L48.319 36.3396C48.1817 35.6703 47.3405 35.3098 46.7226 35.4128L46.6865 35.4188C45.9305 35.5523 45.3177 36.1621 45.4867 36.8717C45.6926 37.8328 45.7442 39.8066 45.6583 40.9909C45.624 41.2827 45.521 41.4371 45.2292 41.4886C44.8859 41.5401 44.4053 41.5916 43.8388 41.6259V40.167H44.0105C44.6284 40.167 45.0747 39.4119 45.0747 38.8283C45.0747 38.1589 44.5254 37.5239 44.0105 37.5239V37.4019C44.3167 37.4019 44.614 37.5881 44.8295 37.8471C45.0468 38.1083 45.1967 38.4613 45.1967 38.8283C45.1967 39.1478 45.0758 39.5071 44.8733 39.7879C44.6711 40.0682 44.3725 40.2891 44.0105 40.2891H43.9608V41.4958C44.4671 41.462 44.8967 41.415 45.2094 41.3682C45.3359 41.3457 45.4036 41.3044 45.4458 41.2527C45.4903 41.1981 45.5206 41.1146 45.5368 40.9791C45.6219 39.8002 45.5698 37.8423 45.3675 36.8977C45.2718 36.4928 45.4043 36.119 45.6599 35.8353C45.9142 35.5531 46.2919 35.3566 46.7025 35.2925V35.2924C46.703 35.2924 46.7034 35.2923 46.7038 35.2922V35.2923C47.0413 35.2364 47.4325 35.3068 47.758 35.4787C48.0843 35.651 48.3604 35.9343 48.4385 36.3151C48.5782 36.996 48.6598 38.0908 48.6706 39.2369C48.6813 40.384 48.6212 41.5931 48.4737 42.5036L48.4736 42.5047C48.4157 42.8424 48.1969 43.1442 47.9353 43.3812C47.6724 43.6194 47.3537 43.8037 47.0724 43.9035L47.0723 43.9035C46.2595 44.1913 45.0805 44.3458 43.978 44.418V46.0165C45.5593 45.9979 47.021 45.9335 48.0185 45.8238L48.116 45.8128C48.4888 45.7664 48.9007 45.8639 49.2257 46.0914C49.5486 46.3174 49.7877 46.6736 49.8131 47.1425L49.8141 47.1649V47.165C49.8514 48.1338 49.139 48.6726 48.4941 48.7832L48.4914 48.7836L48.4887 48.7839C47.4589 48.9137 45.0143 48.9952 42.5368 49.0038C40.0598 49.0123 37.5323 48.9482 36.3381 48.7838L36.3369 48.7836L36.3357 48.7834C35.6388 48.6734 34.8829 48.0274 35.0152 47.101L35.0152 47.1006C35.1461 46.2037 36.0187 45.7211 36.6939 45.8126C37.6935 45.9125 39.2161 45.98 40.8502 46.0152V44.4014C39.6351 44.3288 38.422 44.1594 37.754 43.9028C37.1957 43.7041 36.4865 43.1457 36.321 42.3369L36.3208 42.336L36.3207 42.335C36.1809 41.5926 36.1426 40.4234 36.1576 39.288C36.1727 38.1504 36.2415 37.0344 36.3194 36.3935L36.3196 36.3923L36.3198 36.391C36.3779 35.984 36.6441 35.6805 36.9729 35.4953C37.2903 35.3165 37.6766 35.2411 38.0226 35.2874L38.056 35.2923L38.057 35.2924C38.9196 35.4362 39.5235 36.0426 39.4457 36.7815L39.4453 36.7851L39.4447 36.7888C39.4161 36.9605 39.3876 37.1682 39.3693 37.4019H40.8674V36.5284C40.8674 36.2244 41.0691 35.9476 41.3411 35.7533C41.6164 35.5567 41.9843 35.4281 42.3626 35.4281C42.7175 35.4281 43.1084 35.5275 43.4141 35.7091C43.7179 35.8896 43.9608 36.1671 43.9608 36.5284V37.4019H44.0105V37.5239H43.8388V36.5284Z" fill="url(#paint3_linear_604_1758)"/>
<path d="M73.2949 36.5547C75.9062 36.5547 77.9023 37.9355 77.9023 40.041C77.9023 42.1738 75.9062 43.5547 73.2949 43.5547C70.6973 43.5547 68.7012 42.1738 68.7148 40.041C68.7012 37.9355 70.6973 36.5547 73.2949 36.5547ZM73.2949 37.7852C71.5039 37.7715 70.1777 38.6738 70.1777 40.041C70.1777 41.4355 71.5039 42.3105 73.2949 42.3105C75.0996 42.3105 76.4121 41.4355 76.4121 40.041C76.4121 38.6738 75.0996 37.7715 73.2949 37.7852ZM78.9688 45.4141V46.6582H67.6758V45.4141H78.9688ZM91.0684 45.5234V46.7812H79.7754V45.5234H84.6426V43.5137H81.1152V39.4668H88.2246V37.9355H81.0879V36.7051H89.7285V40.6699H82.6328V42.2695H90.0156V43.5137H86.1465V45.5234H91.0684ZM105.109 36.5684V37.5938C105.109 38.6328 105.109 39.8291 104.836 41.3945H106.49V42.6387H95.1973V41.3945H103.291C103.571 39.9043 103.592 38.7969 103.592 37.7988H96.5918V36.5684H105.109ZM105.465 46.7266V47.957H96.6602V43.8145H98.1641V46.7266H105.465ZM117.66 35.8574V48.2305H116.143V41.9141H113.75V40.6836H116.143V35.8574H117.66ZM111.809 39.7812C111.795 41.6543 112.916 43.6504 114.871 44.5117L114.051 45.6738C112.636 45.0723 111.61 43.835 111.07 42.3516C110.523 43.9238 109.505 45.2432 108.09 45.8789L107.27 44.7031C109.197 43.8281 110.291 41.7227 110.291 39.7812V39.1387H107.639V37.9219H110.305V36.1172H111.822V37.9219H114.406V39.1387H111.809V39.7812ZM133.068 35.8574V43.1309H131.551V41.4219H129.062V42.3789H123.252V36.7871H129.062V37.7441H131.551V35.8574H133.068ZM124.77 37.9902V41.1621H127.559V37.9902H124.77ZM128.885 43.459C131.51 43.459 133.109 44.334 133.109 45.8379C133.109 47.3418 131.51 48.2031 128.885 48.2031C126.273 48.2031 124.674 47.3418 124.688 45.8379C124.674 44.334 126.273 43.459 128.885 43.459ZM128.885 44.6211C127.162 44.6211 126.191 45.0449 126.191 45.8379C126.191 46.6035 127.162 47.0273 128.885 47.0273C130.607 47.0273 131.592 46.6035 131.592 45.8379C131.592 45.0449 130.607 44.6211 128.885 44.6211ZM129.062 40.1914H131.551V38.9473H129.062V40.1914ZM146.111 45.4551V46.6855H134.818V45.4551H139.658V42.5977H141.162V45.4551H146.111ZM141.203 37.5117C141.203 39.3848 143.076 41.2305 145.674 41.6406L145.018 42.8984C142.926 42.502 141.217 41.3057 140.396 39.6855C139.576 41.2988 137.881 42.5156 135.803 42.8984L135.146 41.6406C137.73 41.2305 139.576 39.3711 139.59 37.5117V36.6094H141.203V37.5117ZM158.197 41.4629V42.6113H146.904V41.4629H158.197ZM156.83 43.3496V46.166H149.748V47.0273H157.199V48.0801H148.23V45.1816H155.326V44.416H148.217V43.3496H156.83ZM156.803 36.1309V38.9199H149.844V39.7266H157.021V40.7656H148.34V37.9355H155.285V37.1836H148.299V36.1309H156.803ZM172.129 35.8711V39.4668H173.797V40.7246H172.129V44.2246H170.611V35.8711H172.129ZM162.23 42.748C163.16 42.748 164.233 42.7412 165.348 42.707V41.9551C163.974 41.7842 163.105 41.1211 163.105 40.1504C163.105 39.0156 164.295 38.3047 166.086 38.3184C167.891 38.3047 169.066 39.0156 169.066 40.1504C169.066 41.1143 168.219 41.7705 166.865 41.9414V42.6523C167.918 42.6045 168.978 42.5225 169.969 42.3926L170.092 43.4453C167.453 43.9102 164.568 43.9375 162.395 43.9375L162.23 42.748ZM172.129 44.7578V48.2168H170.611V45.9473H163.789V44.7578H172.129ZM169.641 36.8418V37.9629H162.545V36.8418H165.348V35.7617H166.865V36.8418H169.641ZM166.086 39.3438C165.129 39.3301 164.555 39.6172 164.568 40.1504C164.555 40.6562 165.129 40.9844 166.086 40.9707C167.043 40.9844 167.617 40.6562 167.617 40.1504C167.617 39.6172 167.043 39.3301 166.086 39.3438ZM184.734 35.8711V44.7988H183.203V35.8711H184.734ZM185.076 46.7402V47.9707H176.559V43.8965H178.09V46.7402H185.076ZM177.994 36.6777C179.867 36.6777 181.316 37.9766 181.316 39.7676C181.316 41.5996 179.867 42.8711 177.994 42.8711C176.107 42.8711 174.658 41.5996 174.658 39.7676C174.658 37.9766 176.107 36.6777 177.994 36.6777ZM177.994 38.0039C176.941 38.0039 176.135 38.7012 176.148 39.7676C176.135 40.8613 176.941 41.5449 177.994 41.5449C179.02 41.5449 179.826 40.8613 179.826 39.7676C179.826 38.7012 179.02 38.0039 177.994 38.0039ZM192.568 37.8262V39.043H186.512V37.8262H188.809V36.2129H190.312V37.8262H192.568ZM189.561 39.6992C191.133 39.6992 192.254 40.8887 192.254 42.5703C192.254 44.2793 191.133 45.4824 189.561 45.4824C188.002 45.4824 186.854 44.2793 186.867 42.5703C186.854 40.8887 188.002 39.6992 189.561 39.6992ZM189.561 40.957C188.754 40.957 188.193 41.5996 188.207 42.5703C188.193 43.5684 188.754 44.1973 189.561 44.1836C190.354 44.1973 190.914 43.5684 190.914 42.5703C190.914 41.5996 190.354 40.957 189.561 40.957ZM197.162 35.8574V48.2168H195.713V42.1738H194.51V47.6562H193.088V36.1172H194.51V40.9434H195.713V35.8574H197.162ZM209.932 45.4824V46.7266H198.639V45.4824H203.506V43.0762H199.883V36.6777H201.4V38.7012H207.129V36.6777H208.646V43.0762H205.01V45.4824H209.932ZM201.4 41.8457H207.129V39.918H201.4V41.8457ZM214.594 39.0977C214.594 41.0938 215.291 43.1719 216.959 44.2246L216.125 45.3867C215.011 44.7168 214.286 43.5615 213.883 42.2012C213.432 43.6982 212.639 44.9629 211.477 45.6738L210.533 44.5391C212.324 43.4453 213.131 41.2715 213.131 39.166V36.9512H214.594V39.0977ZM221.402 35.8574V48.2168H219.939V35.8574H221.402ZM218.832 36.0762V47.6152H217.396V41.3672H215.633V40.1094H217.396V36.0762H218.832ZM234.131 45.4688V46.7129H222.838V45.4688H225.449V42.3379C224.465 41.7773 223.87 40.8955 223.877 39.7949C223.863 37.8262 225.805 36.5273 228.457 36.5273C231.123 36.5273 233.064 37.8262 233.064 39.7949C233.064 40.875 232.49 41.7432 231.533 42.3105V45.4688H234.131ZM228.457 37.7305C226.611 37.7305 225.354 38.5098 225.367 39.7949C225.354 41.0664 226.611 41.8594 228.457 41.8594C230.303 41.8594 231.574 41.0664 231.574 39.7949C231.574 38.5098 230.303 37.7305 228.457 37.7305ZM226.953 45.4688H229.988V42.8848C229.517 42.9941 229.004 43.0488 228.457 43.0488C227.924 43.0488 227.418 42.9941 226.953 42.8984V45.4688ZM237.48 37.1016L237.33 44.0879H235.785L235.621 37.1016H237.48ZM236.564 47.1094C235.977 47.1094 235.498 46.6309 235.498 46.043C235.498 45.4688 235.977 44.9902 236.564 44.9902C237.125 44.9902 237.617 45.4688 237.617 46.043C237.617 46.6309 237.125 47.1094 236.564 47.1094Z" fill="#537BFF"/>
<path d="M34.7679 17C35.5377 15.6667 37.4623 15.6667 38.2321 17L43.8612 26.75C44.631 28.0833 43.6688 29.75 42.1292 29.75H30.8708C29.3312 29.75 28.369 28.0833 29.1388 26.75L34.7679 17Z" fill="white"/>
</g>
<defs>
<filter id="filter0_d_604_1758" x="0" y="0" width="274.266" height="85" filterUnits="userSpaceOnUse" color-interpolation-filters="sRGB">
<feFlood flood-opacity="0" result="BackgroundImageFix"/>
<feColorMatrix in="SourceAlpha" type="matrix" values="0 0 0 0 0 0 0 0 0 0 0 0 0 0 0 0 0 0 127 0" result="hardAlpha"/>
<feOffset dy="4"/>
<feGaussianBlur stdDeviation="10"/>
<feComposite in2="hardAlpha" operator="out"/>
<feColorMatrix type="matrix" values="0 0 0 0 0.6 0 0 0 0 0.6 0 0 0 0 0.6 0 0 0 0.19 0"/>
<feBlend mode="normal" in2="BackgroundImageFix" result="effect1_dropShadow_604_1758"/>
<feBlend mode="normal" in="SourceGraphic" in2="effect1_dropShadow_604_1758" result="shape"/>
</filter>
<linearGradient id="paint0_linear_604_1758" x1="57.8607" y1="34.623" x2="57.8607" y2="50.379" gradientUnits="userSpaceOnUse">
<stop offset="0.194111" stop-color="#537BFF"/>
<stop offset="1" stop-color="#8EC5FF"/>
</linearGradient>
<linearGradient id="paint1_linear_604_1758" x1="57.8616" y1="34.5" x2="57.8616" y2="50.5" gradientUnits="userSpaceOnUse">
<stop offset="0.194111" stop-color="#537BFF"/>
<stop offset="1" stop-color="#8EC5FF"/>
</linearGradient>
<linearGradient id="paint2_linear_604_1758" x1="42.4067" y1="35.3965" x2="42.4067" y2="48.8836" gradientUnits="userSpaceOnUse">
<stop offset="0.194111" stop-color="#537BFF"/>
<stop offset="1" stop-color="#8EC5FF"/>
</linearGradient>
<linearGradient id="paint3_linear_604_1758" x1="42.4077" y1="35.2734" x2="42.4077" y2="49.0045" gradientUnits="userSpaceOnUse">
<stop offset="0.194111" stop-color="#537BFF"/>
<stop offset="1" stop-color="#8EC5FF"/>
</linearGradient>
</defs>
</svg>
