<svg width="72" height="72" viewBox="0 0 72 72" fill="none" xmlns="http://www.w3.org/2000/svg">
<g opacity="0.16">
<path d="M15.1914 15.231V26.3029C15.1914 26.5276 15.3735 26.7096 15.5982 26.7096H26.6698C26.8945 26.7096 27.0766 26.5275 27.0766 26.3029V15.231C27.0766 15.0063 26.8945 14.8242 26.6698 14.8242H15.5982C15.3735 14.8242 15.1914 15.0063 15.1914 15.231ZM16.7602 16.393H25.5078V25.1408H16.7602V16.393Z" fill="#537BFF"/>
<path d="M18.5201 17.9629H23.7438C23.8497 17.9629 23.9357 18.0489 23.9357 18.1548V23.3787C23.9357 23.4846 23.8497 23.5706 23.7438 23.5706H18.5201C18.4141 23.5706 18.3281 23.4846 18.3281 23.3787V18.1548C18.3281 18.0488 18.4141 17.9629 18.52 17.9629L18.5201 17.9629Z" fill="#537BFF"/>
<path d="M15.1914 56.7697C15.1914 56.9944 15.3735 57.1764 15.5982 57.1764H26.6698C26.8945 57.1764 27.0766 56.9943 27.0766 56.7697V45.6978C27.0766 45.4731 26.8945 45.291 26.6698 45.291H15.5982C15.3735 45.291 15.1914 45.4731 15.1914 45.6978V56.7697ZM16.7602 46.8598H25.5078V55.6076H16.7602V46.8598Z" fill="#537BFF"/>
<path d="M18.5201 48.4297H23.7438C23.8498 48.4297 23.9357 48.5157 23.9357 48.6216V53.8455C23.9357 53.9514 23.8497 54.0374 23.7438 54.0374H18.5201C18.4141 54.0374 18.3281 53.9514 18.3281 53.8455V48.6216C18.3281 48.5157 18.4141 48.4297 18.5201 48.4297L18.5201 48.4297Z" fill="#537BFF"/>
<path d="M45.3286 26.7096H56.4003C56.625 26.7096 56.807 26.5275 56.807 26.3029V15.231C56.807 15.0063 56.6249 14.8242 56.4003 14.8242H45.3286C45.104 14.8242 44.9219 15.0063 44.9219 15.231V26.3029C44.9219 26.5276 45.104 26.7096 45.3286 26.7096ZM46.4906 16.393H55.2383V25.1408H46.4906V16.393Z" fill="#537BFF"/>
<path d="M48.2544 17.9629H53.4781C53.5841 17.9629 53.6701 18.0489 53.6701 18.1548V23.3787C53.6701 23.4846 53.5841 23.5706 53.4782 23.5706H48.2544C48.1485 23.5706 48.0625 23.4846 48.0625 23.3786V18.1548C48.0625 18.0488 48.1485 17.9629 48.2544 17.9629Z" fill="#537BFF"/>
<path d="M30.9274 22.1033V20.6474V19.1916H32.3581V17.736H33.7886V16.2801H32.3581V14.8242H30.9274H29.4969V16.2801H30.9274V17.736H29.4969H28.0664V19.1916V20.6474V22.1033H29.4969H30.9274Z" fill="#537BFF"/>
<path d="M30.9274 29.3818V27.9259V26.4701H29.4969V25.0142V23.5586H28.0664V25.0142V26.4701V27.9259V29.3818H29.4969H30.9274Z" fill="#537BFF"/>
<path d="M30.9274 54.2324V52.7765V52.743H29.4969V51.2872V49.8316H30.9274H32.3581V49.7981V48.3422V46.8864H33.7886V46.8531V45.3973H32.3581V46.8531H30.9274V45.3973H29.4969V43.9414H28.0664V45.3973V46.8531V46.8864V48.3422V49.7981V49.8316V51.2872V52.743V52.7765V54.2324H29.4969H30.9274Z" fill="#537BFF"/>
<path d="M28.0646 42.4847H29.4951H30.9256H32.3563H33.7868V41.0291H35.2173V39.5732H36.6478V41.0291H38.0785H39.509V42.4847V43.9406H40.9394V42.4847V41.0291V39.5732H39.509H38.0785V38.1173V36.6615H39.509V35.2059V33.75H38.0785H36.6478V35.2059V36.6615H35.2173V38.1173H33.7868H32.3563H30.9256H29.4951H28.0646V39.5732H26.6339H25.2034H23.7729H22.3425V38.1173V36.6615H20.9117V35.2059V33.75H19.4813H18.0508V35.2059V36.6615V38.1173H19.4813H20.9117V39.5732V41.0291H22.3425V42.4847H23.7729V41.0291H25.2034H26.6339H28.0646V42.4847Z" fill="#537BFF"/>
<path d="M26.6336 27.9258H25.2031V29.3816H26.6336V27.9258Z" fill="#537BFF"/>
<path d="M26.6336 30.8379H25.2031V32.2938H26.6336V30.8379Z" fill="#537BFF"/>
<path d="M25.2031 33.7506V35.2064H26.6336H28.0643V36.662H29.4948V35.2064H30.9253H32.356V33.7506H33.7865V35.2064H35.217V33.7506V32.2947V30.8388H36.6475V29.3832V27.9274H38.0782V26.4715V25.0156H36.6475V26.4715H35.217V27.9274H33.7865V29.3832V30.8388H32.356H30.9253V32.2947H29.4948V33.7506H28.0643H26.6336H25.2031Z" fill="#537BFF"/>
<path d="M26.6336 42.4844H25.2031V43.9402H26.6336V42.4844Z" fill="#537BFF"/>
<path d="M23.7734 36.6626V38.1185H25.2039H26.6344V36.6626H25.2039V35.207H23.7734V36.6626Z" fill="#537BFF"/>
<path d="M23.7745 32.2949H22.3438V33.7508V35.2067H23.7745V33.7508V32.2949Z" fill="#537BFF"/>
<path d="M22.3453 30.8373H23.7761H25.2065V29.3816H23.7761V27.9258H22.3453H20.9149H19.4844V29.3816V30.8373H20.9149H22.3453Z" fill="#537BFF"/>
<path d="M20.9149 41.0293H19.4844V42.4849H20.9149V41.0293Z" fill="#537BFF"/>
<path d="M19.4813 30.8379H18.0508V32.2938H19.4813V30.8379Z" fill="#537BFF"/>
<path d="M19.4813 39.5723H18.0508V41.0281H19.4813V39.5723Z" fill="#537BFF"/>
<path d="M16.6219 29.3828H15.1914V30.8384V32.2943V33.7502H16.6219V32.2943V30.8384H18.0526V29.3828H16.6219Z" fill="#537BFF"/>
<path d="M15.1914 38.116V39.5719V41.0278V42.4834H16.6219V41.0278V39.5719V38.116V36.6602H15.1914V38.116Z" fill="#537BFF"/>
<path d="M45.2344 45.3965V46.8524V46.8856H46.6651V46.8524H46.6978V45.3965H46.6651H45.2344Z" fill="#537BFF"/>
<path d="M52.4503 38.116V39.5719H51.0198V41.0278H49.5891V38.116H45.2318V41.0278H42.3709V49.7959H39.5096V52.7409H38.0792V54.2302H36.6484V57.1751H39.5096V54.2302H40.9401V51.285H43.8013V49.8294H46.6625V49.7959H46.6952V49.8294H46.6625V51.285H45.2318V52.7409H43.8013V54.2302H42.3709V57.1751H45.2318V55.7193H46.6625V55.6861H46.6952V55.7193H48.1257V57.1751H49.5892V55.7193H49.5565V55.6861H49.5892V54.2302H46.6952V52.7743H46.6625V52.7409H46.6952V52.7743H49.5565V52.7409H49.5892V52.7743H51.0199V51.285H52.4833V49.8294H52.4504V49.7959H52.4833V48.3401H49.5892V46.8842H49.5565V46.851H49.5892V42.4834H51.0199V43.9392H52.4833V41.0278H53.9138V43.9392H55.3443V45.3951H51.0199V46.8842H52.4504V46.851H52.4833V46.8842H53.9138V49.8294H55.3443V49.7959H55.3772V49.8294H55.3443V51.285H53.9138V52.7743H55.3443V52.7409H55.3772V52.7743H55.3443V54.2302H53.9138V55.6861H52.4833V55.7193H52.4504V57.1751H53.9138V55.7193H55.3443V55.6861H55.3772V55.7193H56.8077V48.3401H55.3772V46.8842H55.3443V46.851H55.3772V45.3951H56.8077V43.9392H55.3772V42.4834H56.8077V38.116H55.3772V36.6602H53.9138V38.116H55.3443V39.5719H53.9138V38.116H52.4833V36.6602H51.0199V38.116H52.4503ZM46.6952 48.3401H43.8013V43.9392H48.1257V48.3401H46.6952ZM49.5891 49.7959V49.8294H49.5564V51.285H48.1257V49.8294H49.5564V49.7959H49.5891Z" fill="#537BFF"/>
<path d="M52.4835 32.2949H52.4506H51.0201V33.7508H49.5893H49.5567V35.2067H48.1259V33.7508H46.6954H46.6625H45.232H43.8016H42.3711V35.2067V36.6623V38.1181H43.8016V36.6623H45.232H46.6628H46.6954H48.1259H49.5567H49.5893H51.0201V35.2067H52.4506H52.4835V33.7508H53.914V32.2949H52.4835Z" fill="#537BFF"/>
<path d="M55.3476 35.2049H55.3805H56.811V33.749V32.2931V30.8373H55.3805V29.3816H55.3476H53.9171V27.9258H52.4866H52.4537H51.0232H49.5925H49.5598H48.129H46.6986H46.6656H45.2351V29.3816H43.8047V30.8373V32.2931H45.2351V30.8373H46.6656H46.6986V29.3816H48.129H49.5598V30.8373H49.5925H51.0232H52.4537H52.4866H53.9171H55.3476V32.2931V33.749H53.9171V35.2049H55.3476Z" fill="#537BFF"/>
<path d="M43.8026 19.1919V17.7363H42.3721H40.9414V19.1919H42.3721H43.8026Z" fill="#537BFF"/>
<path d="M43.8016 25.0156H42.3711V26.4715H43.8016V25.0156Z" fill="#537BFF"/>
<path d="M40.9414 27.9266V29.3824H42.3721V27.9266V26.4707H40.9414V27.9266Z" fill="#537BFF"/>
<path d="M40.9422 36.6602H39.5117V38.116H40.9422V36.6602Z" fill="#537BFF"/>
<path d="M38.082 25.0138H39.5125V26.4697H40.943V25.0138H42.3737V23.5582H43.8042V22.1024V20.6465H42.3737H40.943V22.1024H39.5125H38.082V23.5582V25.0138Z" fill="#537BFF"/>
<path d="M38.082 30.8373V32.2931H39.5125H40.943V30.8373H39.5125V29.3816V27.9258H38.082V29.3816V30.8373Z" fill="#537BFF"/>
<path d="M36.65 46.8852V48.3411H35.2195H33.7891V49.7969V49.8304H35.2195H36.65H38.0808V49.7969V48.3411H39.5112V46.8852V46.852V45.3961H38.0808V43.9402H36.65V42.4844H35.2195V43.9402V45.3961H36.65V46.852V46.8852Z" fill="#537BFF"/>
<path d="M36.6492 16.2801H38.08V17.736V19.1916H39.5104V17.736V16.2801V14.8242H38.08H36.6492H35.2188V16.2801V17.736H36.6492V16.2801Z" fill="#537BFF"/>
<path d="M36.65 22.1031H38.0808V20.6473H36.65V19.1914H35.2195V20.6473H33.7891V22.1031H35.2195V23.559H36.65V22.1031Z" fill="#537BFF"/>
<path d="M36.6508 52.741V51.2852H35.2203H33.7899H32.3594V52.741V52.7745H33.7899H35.2203V54.2304H36.6508V52.7745V52.741Z" fill="#537BFF"/>
<path d="M35.2195 23.5586H33.7891V25.0142V26.4701H35.2195V25.0142V23.5586Z" fill="#537BFF"/>
<path d="M33.787 57.1774V55.7215V55.6883V54.2324H32.3565V55.6883H30.9258V55.7215V57.1774H32.3565H33.787Z" fill="#537BFF"/>
<path d="M32.3565 22.1035H30.9258V23.5594H32.3565V22.1035Z" fill="#537BFF"/>
<path d="M32.3565 25.0156H30.9258V26.4715H32.3565V25.0156Z" fill="#537BFF"/>
<path d="M12.523 20.0059C12.8118 20.0059 13.0459 19.7718 13.0459 19.483V13.5437C13.0459 13.2692 13.2692 13.0459 13.5437 13.0459H19.4829C19.7717 13.0459 20.0058 12.8117 20.0058 12.5229C20.0058 12.2341 19.7717 12 19.4829 12H13.5437C12.6925 12 12 12.6925 12 13.5437V19.483C12 19.7718 12.2341 20.006 12.5229 20.006L12.523 20.0059Z" fill="#537BFF"/>
<path d="M20.0058 59.4772C20.0058 59.1883 19.7716 58.9542 19.4828 58.9542H13.5437C13.2692 58.9542 13.0458 58.7309 13.0458 58.4564V52.5171C13.0458 52.2283 12.8117 51.9941 12.5229 51.9941C12.2341 51.9941 12 52.2283 12 52.5171V58.4564C12 59.3076 12.6925 60.0001 13.5437 60.0001H19.4829C19.7717 60.0001 20.0058 59.766 20.0058 59.4772H20.0058Z" fill="#537BFF"/>
<path d="M59.4751 51.9941C59.1863 51.9941 58.9521 52.2283 58.9521 52.5171V58.4564C58.9521 58.7309 58.7288 58.9542 58.4543 58.9542H52.5151C52.2263 58.9542 51.9922 59.1884 51.9922 59.4772C51.9922 59.766 52.2263 60.0001 52.5151 60.0001H58.4543C59.3055 60.0001 59.998 59.3076 59.998 58.4564V52.5171C59.998 52.2283 59.7638 51.9941 59.4751 51.9941Z" fill="#537BFF"/>
<path d="M58.4543 12H52.5151C52.2263 12 51.9922 12.2342 51.9922 12.523C51.9922 12.8118 52.2263 13.0459 52.5151 13.0459H58.4543C58.7288 13.0459 58.9521 13.2692 58.9521 13.5437V19.483C58.9521 19.7718 59.1863 20.006 59.4751 20.006C59.7638 20.006 59.998 19.7718 59.998 19.483V13.5437C59.998 12.6925 59.3055 12 58.4543 12L58.4543 12Z" fill="#537BFF"/>
</g>
</svg>
